<mxfile host="app.diagrams.net" modified="2024-04-21T08:08:02.396Z" agent="Mozilla/5.0 (Windows NT 10.0; Win64; x64) AppleWebKit/537.36 (KHTML, like Gecko) Chrome/116.0.0.0 Safari/537.36" version="24.2.7" etag="UKFoxmay-wLoiPetAWBI" type="github">
  <diagram name="第 1 页" id="2zxt2j1yPSucrHX_mcAG">
    <mxGraphModel>
      <root>
        <mxCell id="0" />
        <mxCell id="1" parent="0" />
      </root>
    </mxGraphModel>
  </diagram>
</mxfile>
